<mxfile host="app.diagrams.net" agent="Mozilla/5.0 (Windows NT 10.0; Win64; x64) AppleWebKit/537.36 (KHTML, like Gecko) Chrome/137.0.0.0 Safari/537.36 Edg/137.0.0.0" version="27.1.4">
  <diagram name="第 1 页" id="hZJkErSULOaAVS3j0NFo">
    <mxGraphModel dx="1418" dy="786" grid="1" gridSize="10" guides="1" tooltips="1" connect="1" arrows="1" fold="1" page="1" pageScale="1" pageWidth="827" pageHeight="1169" background="#ffffff" math="0" shadow="0">
      <root>
        <mxCell id="0" />
        <mxCell id="1" parent="0" />
        <mxCell id="bHEEanfFUxRCGJLaZjD6-1" value="FMS Sharing" style="text;html=1;align=center;verticalAlign=middle;whiteSpace=wrap;rounded=0;fontSize=16;fontStyle=1" vertex="1" parent="1">
          <mxGeometry x="260" y="270" width="109" height="20" as="geometry" />
        </mxCell>
        <mxCell id="bHEEanfFUxRCGJLaZjD6-2" value="" style="endArrow=none;dashed=1;html=1;rounded=0;entryX=0.5;entryY=1;entryDx=0;entryDy=0;" edge="1" parent="1" source="bHEEanfFUxRCGJLaZjD6-16">
          <mxGeometry width="50" height="50" relative="1" as="geometry">
            <mxPoint x="740" y="1429" as="sourcePoint" />
            <mxPoint x="740" y="349" as="targetPoint" />
          </mxGeometry>
        </mxCell>
        <mxCell id="bHEEanfFUxRCGJLaZjD6-3" value="" style="endArrow=none;dashed=1;html=1;rounded=0;entryX=0.5;entryY=1;entryDx=0;entryDy=0;" edge="1" parent="1" source="bHEEanfFUxRCGJLaZjD6-14" target="bHEEanfFUxRCGJLaZjD6-6">
          <mxGeometry width="50" height="50" relative="1" as="geometry">
            <mxPoint x="544" y="1429" as="sourcePoint" />
            <mxPoint x="394" y="359" as="targetPoint" />
          </mxGeometry>
        </mxCell>
        <mxCell id="bHEEanfFUxRCGJLaZjD6-4" value="" style="endArrow=none;dashed=1;html=1;rounded=0;entryX=0.5;entryY=1;entryDx=0;entryDy=0;" edge="1" parent="1" source="bHEEanfFUxRCGJLaZjD6-12" target="bHEEanfFUxRCGJLaZjD6-5">
          <mxGeometry width="50" height="50" relative="1" as="geometry">
            <mxPoint x="340" y="1469" as="sourcePoint" />
            <mxPoint x="700" y="439" as="targetPoint" />
          </mxGeometry>
        </mxCell>
        <mxCell id="bHEEanfFUxRCGJLaZjD6-5" value="FMS" style="rounded=0;whiteSpace=wrap;html=1;" vertex="1" parent="1">
          <mxGeometry x="300" y="309" width="80" height="40" as="geometry" />
        </mxCell>
        <mxCell id="bHEEanfFUxRCGJLaZjD6-6" value="SBOD" style="rounded=0;whiteSpace=wrap;html=1;" vertex="1" parent="1">
          <mxGeometry x="504" y="309" width="80" height="40" as="geometry" />
        </mxCell>
        <mxCell id="bHEEanfFUxRCGJLaZjD6-7" value="VOS" style="rounded=0;whiteSpace=wrap;html=1;" vertex="1" parent="1">
          <mxGeometry x="700" y="309" width="80" height="40" as="geometry" />
        </mxCell>
        <mxCell id="bHEEanfFUxRCGJLaZjD6-8" value="Relay Server" style="rounded=0;whiteSpace=wrap;html=1;" vertex="1" parent="1">
          <mxGeometry x="900" y="309" width="80" height="40" as="geometry" />
        </mxCell>
        <mxCell id="bHEEanfFUxRCGJLaZjD6-9" value="" style="endArrow=none;dashed=1;html=1;rounded=0;entryX=0.5;entryY=1;entryDx=0;entryDy=0;" edge="1" parent="1" source="bHEEanfFUxRCGJLaZjD6-18">
          <mxGeometry width="50" height="50" relative="1" as="geometry">
            <mxPoint x="940" y="1429" as="sourcePoint" />
            <mxPoint x="940" y="349" as="targetPoint" />
          </mxGeometry>
        </mxCell>
        <mxCell id="bHEEanfFUxRCGJLaZjD6-10" value="prepareKeySharingExternal (&lt;div&gt;vehicleID,&amp;nbsp;&lt;/div&gt;&lt;div&gt;accountIDHash,&amp;nbsp;&lt;/div&gt;&lt;div&gt;sharingID,&amp;nbsp;&lt;/div&gt;&lt;div&gt;dkEntitlements)&lt;/div&gt;" style="html=1;verticalAlign=bottom;endArrow=block;edgeStyle=elbowEdgeStyle;elbow=vertical;curved=0;rounded=0;" edge="1" parent="1">
          <mxGeometry x="0.0133" relative="1" as="geometry">
            <mxPoint x="345" y="430" as="sourcePoint" />
            <Array as="points" />
            <mxPoint x="539" y="430" as="targetPoint" />
            <mxPoint as="offset" />
          </mxGeometry>
        </mxCell>
        <mxCell id="bHEEanfFUxRCGJLaZjD6-11" value="" style="endArrow=none;dashed=1;html=1;rounded=0;entryX=0.5;entryY=1;entryDx=0;entryDy=0;" edge="1" parent="1" target="bHEEanfFUxRCGJLaZjD6-12">
          <mxGeometry width="50" height="50" relative="1" as="geometry">
            <mxPoint x="340" y="829" as="sourcePoint" />
            <mxPoint x="340" y="298" as="targetPoint" />
          </mxGeometry>
        </mxCell>
        <mxCell id="bHEEanfFUxRCGJLaZjD6-12" value="" style="html=1;points=[];perimeter=orthogonalPerimeter;outlineConnect=0;targetShapes=umlLifeline;portConstraint=eastwest;newEdgeStyle={&quot;edgeStyle&quot;:&quot;elbowEdgeStyle&quot;,&quot;elbow&quot;:&quot;vertical&quot;,&quot;curved&quot;:0,&quot;rounded&quot;:0};" vertex="1" parent="1">
          <mxGeometry x="335" y="368" width="10" height="421" as="geometry" />
        </mxCell>
        <mxCell id="bHEEanfFUxRCGJLaZjD6-13" value="" style="endArrow=none;dashed=1;html=1;rounded=0;entryX=0.5;entryY=1;entryDx=0;entryDy=0;" edge="1" parent="1" target="bHEEanfFUxRCGJLaZjD6-14">
          <mxGeometry width="50" height="50" relative="1" as="geometry">
            <mxPoint x="544" y="829" as="sourcePoint" />
            <mxPoint x="544" y="298" as="targetPoint" />
          </mxGeometry>
        </mxCell>
        <mxCell id="bHEEanfFUxRCGJLaZjD6-14" value="" style="html=1;points=[];perimeter=orthogonalPerimeter;outlineConnect=0;targetShapes=umlLifeline;portConstraint=eastwest;newEdgeStyle={&quot;edgeStyle&quot;:&quot;elbowEdgeStyle&quot;,&quot;elbow&quot;:&quot;vertical&quot;,&quot;curved&quot;:0,&quot;rounded&quot;:0};" vertex="1" parent="1">
          <mxGeometry x="539" y="371" width="10" height="388" as="geometry" />
        </mxCell>
        <mxCell id="bHEEanfFUxRCGJLaZjD6-15" value="" style="endArrow=none;dashed=1;html=1;rounded=0;entryX=0.5;entryY=1;entryDx=0;entryDy=0;" edge="1" parent="1" target="bHEEanfFUxRCGJLaZjD6-16">
          <mxGeometry width="50" height="50" relative="1" as="geometry">
            <mxPoint x="740" y="829" as="sourcePoint" />
            <mxPoint x="740" y="298" as="targetPoint" />
          </mxGeometry>
        </mxCell>
        <mxCell id="bHEEanfFUxRCGJLaZjD6-16" value="" style="html=1;points=[];perimeter=orthogonalPerimeter;outlineConnect=0;targetShapes=umlLifeline;portConstraint=eastwest;newEdgeStyle={&quot;edgeStyle&quot;:&quot;elbowEdgeStyle&quot;,&quot;elbow&quot;:&quot;vertical&quot;,&quot;curved&quot;:0,&quot;rounded&quot;:0};" vertex="1" parent="1">
          <mxGeometry x="735" y="649" width="10" height="80" as="geometry" />
        </mxCell>
        <mxCell id="bHEEanfFUxRCGJLaZjD6-17" value="" style="endArrow=none;dashed=1;html=1;rounded=0;entryX=0.5;entryY=1;entryDx=0;entryDy=0;" edge="1" parent="1" target="bHEEanfFUxRCGJLaZjD6-18">
          <mxGeometry width="50" height="50" relative="1" as="geometry">
            <mxPoint x="940" y="829" as="sourcePoint" />
            <mxPoint x="940" y="298" as="targetPoint" />
          </mxGeometry>
        </mxCell>
        <mxCell id="bHEEanfFUxRCGJLaZjD6-18" value="" style="html=1;points=[];perimeter=orthogonalPerimeter;outlineConnect=0;targetShapes=umlLifeline;portConstraint=eastwest;newEdgeStyle={&quot;edgeStyle&quot;:&quot;elbowEdgeStyle&quot;,&quot;elbow&quot;:&quot;vertical&quot;,&quot;curved&quot;:0,&quot;rounded&quot;:0};" vertex="1" parent="1">
          <mxGeometry x="935" y="439" width="10" height="110" as="geometry" />
        </mxCell>
        <mxCell id="bHEEanfFUxRCGJLaZjD6-19" value="sharingURL" style="html=1;verticalAlign=bottom;endArrow=block;edgeStyle=elbowEdgeStyle;elbow=vertical;curved=0;rounded=0;" edge="1" parent="1" target="bHEEanfFUxRCGJLaZjD6-14">
          <mxGeometry x="-0.0004" relative="1" as="geometry">
            <mxPoint x="935" y="519" as="sourcePoint" />
            <Array as="points">
              <mxPoint x="789" y="519" />
            </Array>
            <mxPoint x="759" y="520" as="targetPoint" />
            <mxPoint as="offset" />
          </mxGeometry>
        </mxCell>
        <mxCell id="bHEEanfFUxRCGJLaZjD6-20" value="Fleet Customer/&lt;div&gt;DOS&lt;/div&gt;" style="rounded=0;whiteSpace=wrap;html=1;" vertex="1" parent="1">
          <mxGeometry x="1099" y="309" width="80" height="40" as="geometry" />
        </mxCell>
        <mxCell id="bHEEanfFUxRCGJLaZjD6-21" value="" style="endArrow=none;dashed=1;html=1;rounded=0;entryX=0.5;entryY=1;entryDx=0;entryDy=0;" edge="1" parent="1" source="bHEEanfFUxRCGJLaZjD6-25">
          <mxGeometry width="50" height="50" relative="1" as="geometry">
            <mxPoint x="1139" y="909" as="sourcePoint" />
            <mxPoint x="1138.5" y="349" as="targetPoint" />
          </mxGeometry>
        </mxCell>
        <mxCell id="bHEEanfFUxRCGJLaZjD6-22" value="CreateMailbox (&lt;div&gt;payload = sharingKeyCreationRequest,&amp;nbsp;&lt;/div&gt;&lt;div&gt;displayInformation,&amp;nbsp;&lt;/div&gt;&lt;div&gt;notificationToken)&lt;/div&gt;" style="html=1;verticalAlign=bottom;endArrow=block;edgeStyle=elbowEdgeStyle;elbow=vertical;curved=0;rounded=0;" edge="1" parent="1" target="bHEEanfFUxRCGJLaZjD6-18">
          <mxGeometry x="0.0133" relative="1" as="geometry">
            <mxPoint x="549" y="469" as="sourcePoint" />
            <Array as="points" />
            <mxPoint x="804" y="469" as="targetPoint" />
            <mxPoint as="offset" />
          </mxGeometry>
        </mxCell>
        <mxCell id="bHEEanfFUxRCGJLaZjD6-23" value="prepareKeySharingExternalResponse(&lt;div&gt;urlLink + secret[devicePIN])&lt;/div&gt;" style="html=1;verticalAlign=bottom;endArrow=block;edgeStyle=elbowEdgeStyle;elbow=vertical;curved=0;rounded=0;" edge="1" parent="1" target="bHEEanfFUxRCGJLaZjD6-12">
          <mxGeometry x="-0.0004" relative="1" as="geometry">
            <mxPoint x="539" y="549" as="sourcePoint" />
            <Array as="points">
              <mxPoint x="393" y="549" />
            </Array>
            <mxPoint x="153" y="549" as="targetPoint" />
            <mxPoint as="offset" />
          </mxGeometry>
        </mxCell>
        <mxCell id="bHEEanfFUxRCGJLaZjD6-24" value="" style="endArrow=none;dashed=1;html=1;rounded=0;entryX=0.5;entryY=1;entryDx=0;entryDy=0;" edge="1" parent="1" target="bHEEanfFUxRCGJLaZjD6-25">
          <mxGeometry width="50" height="50" relative="1" as="geometry">
            <mxPoint x="1139" y="829" as="sourcePoint" />
            <mxPoint x="1138.5" y="349" as="targetPoint" />
          </mxGeometry>
        </mxCell>
        <mxCell id="bHEEanfFUxRCGJLaZjD6-25" value="" style="html=1;points=[];perimeter=orthogonalPerimeter;outlineConnect=0;targetShapes=umlLifeline;portConstraint=eastwest;newEdgeStyle={&quot;edgeStyle&quot;:&quot;elbowEdgeStyle&quot;,&quot;elbow&quot;:&quot;vertical&quot;,&quot;curved&quot;:0,&quot;rounded&quot;:0};" vertex="1" parent="1">
          <mxGeometry x="1134" y="569" width="10" height="140" as="geometry" />
        </mxCell>
        <mxCell id="bHEEanfFUxRCGJLaZjD6-26" value="sharing invitation (sharingURL + secret)" style="html=1;verticalAlign=bottom;endArrow=block;edgeStyle=elbowEdgeStyle;elbow=vertical;curved=0;rounded=0;" edge="1" parent="1" target="bHEEanfFUxRCGJLaZjD6-25">
          <mxGeometry x="0.0133" relative="1" as="geometry">
            <mxPoint x="345" y="589" as="sourcePoint" />
            <Array as="points" />
            <mxPoint x="731" y="589" as="targetPoint" />
            <mxPoint as="offset" />
          </mxGeometry>
        </mxCell>
        <mxCell id="bHEEanfFUxRCGJLaZjD6-27" value="trackKey (API)" style="html=1;verticalAlign=bottom;endArrow=block;edgeStyle=elbowEdgeStyle;elbow=vertical;curved=0;rounded=0;" edge="1" parent="1" target="bHEEanfFUxRCGJLaZjD6-16">
          <mxGeometry x="-0.0004" relative="1" as="geometry">
            <mxPoint x="1134" y="659" as="sourcePoint" />
            <Array as="points">
              <mxPoint x="988" y="659" />
            </Array>
            <mxPoint x="809" y="659" as="targetPoint" />
            <mxPoint as="offset" />
          </mxGeometry>
        </mxCell>
        <mxCell id="bHEEanfFUxRCGJLaZjD6-28" value="trackKeyResponse (API)" style="html=1;verticalAlign=bottom;endArrow=block;edgeStyle=elbowEdgeStyle;elbow=vertical;curved=0;rounded=0;" edge="1" parent="1">
          <mxGeometry x="0.0133" relative="1" as="geometry">
            <mxPoint x="745" y="689" as="sourcePoint" />
            <Array as="points" />
            <mxPoint x="1131" y="689" as="targetPoint" />
            <mxPoint as="offset" />
          </mxGeometry>
        </mxCell>
        <mxCell id="bHEEanfFUxRCGJLaZjD6-29" value="eventNotification (&lt;div&gt;resonType =&amp;nbsp;&lt;/div&gt;&lt;div&gt;KEY_INFORMATION_UPDATED,&amp;nbsp;&lt;/div&gt;&lt;div&gt;reasonSubtype =&amp;nbsp;&lt;/div&gt;&lt;div&gt;SHARED_KEY_ADDED)&lt;/div&gt;" style="html=1;verticalAlign=bottom;endArrow=block;edgeStyle=elbowEdgeStyle;elbow=vertical;curved=0;rounded=0;" edge="1" parent="1" source="bHEEanfFUxRCGJLaZjD6-16" target="bHEEanfFUxRCGJLaZjD6-14">
          <mxGeometry x="-0.0004" relative="1" as="geometry">
            <mxPoint x="731" y="713" as="sourcePoint" />
            <Array as="points">
              <mxPoint x="585" y="713" />
            </Array>
            <mxPoint x="345" y="713" as="targetPoint" />
            <mxPoint as="offset" />
          </mxGeometry>
        </mxCell>
        <mxCell id="bHEEanfFUxRCGJLaZjD6-30" value="eventNotificationExternal (&lt;div&gt;resonType =&amp;nbsp;&lt;/div&gt;&lt;div&gt;KEY_INFORMATION_UPDATED,&amp;nbsp;&lt;/div&gt;&lt;div&gt;reasonSubtype =&amp;nbsp;&lt;/div&gt;&lt;div&gt;SHARED_KEY_ADDED)&lt;/div&gt;" style="html=1;verticalAlign=bottom;endArrow=block;edgeStyle=elbowEdgeStyle;elbow=vertical;curved=0;rounded=0;" edge="1" parent="1" target="bHEEanfFUxRCGJLaZjD6-12">
          <mxGeometry x="-0.0004" relative="1" as="geometry">
            <mxPoint x="539" y="739" as="sourcePoint" />
            <Array as="points">
              <mxPoint x="393" y="739" />
            </Array>
            <mxPoint x="379" y="739" as="targetPoint" />
            <mxPoint as="offset" />
          </mxGeometry>
        </mxCell>
        <mxCell id="bHEEanfFUxRCGJLaZjD6-31" value="Complete Key Sharing and delete mailbox" style="rounded=1;whiteSpace=wrap;html=1;" vertex="1" parent="1">
          <mxGeometry x="329" y="606" width="831.5" height="20" as="geometry" />
        </mxCell>
      </root>
    </mxGraphModel>
  </diagram>
</mxfile>
